<svg xmlns="http://www.w3.org/2000/svg" xmlns:xlink="http://www.w3.org/1999/xlink" aria-hidden="true" role="img" class="iconify iconify--logos" width="31.88" height="70" preserveAspectRatio="xMidYMid meet" viewBox="0 0 256 564"><path fill="#61DAFB" d="M127.222 221.152c12.75 0 23.094 10.342 23.094 23.094c0 12.75-10.344 23.094-23.094 23.094s-23.094-10.344-23.094-23.094c0-12.752 10.344-23.094 23.094-23.094M88.144 281.352a197.247 197.247 0 0 1-6.798-4.856c-2.556-1.902-5.032-3.882-7.412-5.93a194.638 194.638 0 0 1-6.832-6.184a191.354 191.354 0 0 1-6.176-6.59a196.6 196.6 0 0 1-5.66-6.914a200.238 200.238 0 0 1-5.082-7.172a203.254 203.254 0 0 1-4.434-7.388a206.426 206.426 0 0 1-3.756-7.548a209.596 209.596 0 0 1-3.038-7.648a211.904 211.904 0 0 1-2.29-7.696a213.252 213.252 0 0 1-1.516-7.7a215.27 215.27 0 0 1-.722-7.616a214.818 214.818 0 0 1 .084-7.436a212.322 212.322 0 0 1 .884-7.158a210.596 210.596 0 0 1 1.672-6.802a207.3 207.3 0 0 1 2.44-6.354a205.352 205.352 0 0 1 3.178-5.814a200.998 200.998 0 0 1 3.86-5.196a198.338 198.338 0 0 1 4.506-4.522a195.238 195.238 0 0 1 5.104-3.796a194.342 194.342 0 0 1 5.642-3.03a191.654 191.654 0 0 1 6.112-2.226a192.318 192.318 0 0 1 6.502-1.39a195.5 195.5 0 0 1 6.814-.546a196.756 196.756 0 0 1 7.016.292c2.374.168 4.708.4 7.002.692c2.292.292 4.548.644 6.76 1.06c2.214.414 4.388.89 6.52 1.428c2.134.54 4.228 1.14 6.284 1.8c2.056.662 4.07 1.382 6.046 2.164c1.976.78 3.914 1.62 5.812 2.52c1.9.9 3.758 1.858 5.576 2.874c1.82 1.016 3.598 2.09 5.334 3.22c1.736 1.132 3.43 2.322 5.086 3.568c1.654 1.248 3.268 2.554 4.84 3.916c1.572 1.364 3.102 2.782 4.59 4.258c1.488 1.474 2.934 3.004 4.34 4.59c1.404 1.584 2.764 3.222 4.082 4.916c1.32 1.692 2.592 3.438 3.824 5.236c1.23 1.798 2.42 3.648 3.564 5.548c1.146 1.9 2.244 3.852 3.296 5.854c1.052 2 2.058 4.052 3.016 6.152c.96 2.1 1.87 4.252 2.732 6.45c.862 2.2 1.674 4.452 2.436 6.752c.764 2.3 1.478 4.652 2.14 7.048c.664 2.398 1.276 4.848 1.836 7.344c.56 2.498 1.07 5.048 1.528 7.648c.456 2.6.864 5.254 1.22 7.964c.354 2.708.654 5.47.904 8.288c.248 2.816.444 5.69.588 8.616c.142 2.928.23 5.914.262 8.958c.032 3.044.012 6.152-.064 9.324c-.074 3.172-.196 6.412-.364 9.72c-.17 3.308-.386 6.684-.648 10.128c-.264 3.446-.574 6.96-.934 10.544c-.36 3.584-.768 7.24-1.228 10.964c-.46 3.724-.97 7.52-1.532 11.388c-.56 3.868-1.17 7.806-1.832 11.816c-.66 4.01-1.37 8.094-2.134 12.25a506.288 506.288 0 0 1-2.448 12.61a508.494 508.494 0 0 1-2.814 13.032a511.614 511.614 0 0 1-3.2 13.492a514.282 514.282 0 0 1-3.594 13.986a518.026 518.026 0 0 1-4.006 14.518a520.812 520.812 0 0 1-4.432 15.082a522.882 522.882 0 0 1-4.878 15.684a526.538 526.538 0 0 1-5.35 16.326a528.428 528.428 0 0 1-5.844 16.998a532.094 532.094 0 0 1-6.362 17.716a534.066 534.066 0 0 1-6.902 18.47a538.326 538.326 0 0 1-7.474 19.272a539.778 539.778 0 0 1-8.066 20.106a544.05 544.05 0 0 1-8.69 20.99a545.942 545.942 0 0 1-9.344 21.902a550.4 550.4 0 0 1-10.028 22.852a551.318 551.318 0 0 1-10.74 23.834a556.718 556.718 0 0 1-11.482 24.848a556.336 556.336 0 0 1-12.254 25.898c-4.204 8.708-8.528 17.354-12.976 25.93l.8.468l.8.468c4.444-8.576 8.768-17.226 12.972-25.932a556.336 556.336 0 0 0 12.254-25.898a556.718 556.718 0 0 0 11.482-24.848a551.318 551.318 0 0 0 10.74-23.834a550.4 550.4 0 0 0 10.028-22.852a545.942 545.942 0 0 0 9.344-21.902a544.05 544.05 0 0 0 8.69-20.99a539.778 539.778 0 0 0 8.066-20.106a538.326 538.326 0 0 0 7.474-19.272a534.066 534.066 0 0 0 6.902-18.47a532.094 532.094 0 0 0 6.362-17.716a528.428 528.428 0 0 0 5.844-16.998a526.538 526.538 0 0 0 5.35-16.326a522.882 522.882 0 0 0 4.878-15.684a520.812 520.812 0 0 0 4.432-15.082a518.026 518.026 0 0 0 4.006-14.518a514.282 514.282 0 0 0 3.594-13.986a511.614 511.614 0 0 0 3.2-13.492a508.494 508.494 0 0 0 2.814-13.032a506.288 506.288 0 0 0 2.448-12.61c.764-4.156 1.474-8.24 2.134-12.25c.662-4.01 1.272-7.948 1.832-11.816c.562-3.868 1.072-7.664 1.532-11.388c.46-3.724.874-7.38 1.228-10.964c.36-3.584.67-7.098.934-10.544c.262-3.444.478-6.82.648-10.128c.168-3.308.29-6.548.364-9.72c.076-3.172.096-6.28.064-9.324c-.032-3.044-.12-6.03-.262-8.958c-.144-2.926-.34-5.8-.588-8.616c-.25-2.818-.55-5.58-.904-8.288c-.356-2.71-.764-5.364-1.22-7.964c-.458-2.6-.968-5.15-1.528-7.648c-.56-2.496-1.172-4.946-1.836-7.344c-.662-2.396-1.376-4.748-2.14-7.048c-.762-2.3-1.574-4.552-2.436-6.752c-.862-2.198-1.772-4.35-2.732-6.45c-.958-2.1-1.964-4.152-3.016-6.152c-1.052-2.002-2.15-3.954-3.296-5.854c-1.144-1.9-2.334-3.75-3.564-5.548c-1.232-1.798-2.504-3.544-3.824-5.236c-1.318-1.694-2.678-3.332-4.082-4.916c-1.406-1.586-2.852-3.116-4.34-4.59c-1.488-1.476-3.018-2.894-4.59-4.258c-1.572-1.362-3.186-2.668-4.84-3.916c-1.656-1.246-3.35-2.436-5.086-3.568c-1.736-1.13-3.514-2.204-5.334-3.22c-1.818-1.016-3.676-1.974-5.576-2.874c-1.898-.9-3.836-1.74-5.812-2.52c-1.976-.782-3.99-1.502-6.046-2.164c-2.056-.66-4.15-1.26-6.284-1.8c-2.132-.538-4.306-1.014-6.52-1.428c-2.212-.416-4.468-.768-6.76-1.06c-2.294-.292-4.628-.524-7.002-.692a196.756 196.756 0 0 0-7.016-.292a195.5 195.5 0 0 0-6.814.546a192.318 192.318 0 0 0-6.502 1.39a191.654 191.654 0 0 0-6.112 2.226a194.342 194.342 0 0 0-5.642 3.03a195.238 195.238 0 0 0-5.104 3.796a198.338 198.338 0 0 0-4.506 4.522a200.998 200.998 0 0 0-3.86 5.196a205.352 205.352 0 0 0-3.178 5.814a207.3 207.3 0 0 0-2.44 6.354a210.596 210.596 0 0 0-1.672 6.802a212.322 212.322 0 0 0-.884 7.158a214.818 214.818 0 0 0-.084 7.436a215.27 215.27 0 0 0 .722 7.616a213.252 213.252 0 0 0 1.516 7.7a211.904 211.904 0 0 0 2.29 7.696a209.596 209.596 0 0 0 3.038 7.648a206.426 206.426 0 0 0 3.756 7.548a203.254 203.254 0 0 0 4.434 7.388a200.238 200.238 0 0 0 5.082 7.172a196.6 196.6 0 0 0 5.66 6.914a191.354 191.354 0 0 0 6.176 6.59a194.638 194.638 0 0 0 6.832 6.184c2.38 2.048 4.856 4.028 7.412 5.93a197.247 197.247 0 0 0 6.798 4.856a196.918 196.918 0 0 0 6.914 4.462c2.336 1.432 4.7 2.806 7.096 4.12a194.992 194.992 0 0 0 7.252 3.78c2.44 1.214 4.914 2.368 7.422 3.464c2.506 1.096 5.044 2.132 7.612 3.11c2.57.976 5.172 1.894 7.802 2.756c2.632.862 5.292 1.664 7.982 2.41c2.69.744 5.406 1.432 8.15 2.064c2.744.63 5.516 1.204 8.316 1.72c2.8.518 5.628.98 8.482 1.384c2.856.406 5.74.754 8.648 1.046c2.91.29 5.844.522 8.802.698c2.958.176 5.94.294 8.944.354c3.006.06 6.034.06 9.086.004c3.05-.058 6.128-.166 9.23-.322c3.102-.158 6.228-.366 9.376-.62c3.148-.256 6.318-.562 9.508-.916c3.192-.354 6.404-.756 9.636-1.206c3.232-.452 6.482-.952 9.752-1.5c3.27-.548 6.558-1.144 9.862-1.786c3.306-.644 6.628-1.334 9.968-2.07c3.338-.738 6.692-1.52 10.062-2.35c3.37-.828 6.754-1.704 10.15-2.626c3.398-.922 6.808-1.89 10.23-2.906c3.42-1.016 6.85-2.076 10.294-3.184c3.442-1.108 6.894-2.262 10.358-3.46c3.462-1.198 6.934-2.442 10.416-3.728c3.48-1.288 6.966-2.62 10.46-4a517.36 517.36 0 0 0 10.5-4.314c3.508-1.506 7.022-3.058 10.54-4.658c3.52-1.6 7.042-3.248 10.568-4.94c3.524-1.694 7.05-3.434 10.576-5.22c3.528-1.786 7.056-3.618 10.584-5.496c3.528-1.878 7.054-3.802 10.58-5.77c3.528-1.97 7.054-3.982 10.58-6.04c3.526-2.056 7.05-4.158 10.572-6.304c3.524-2.144 7.044-4.334 10.562-6.566c3.52-2.232 7.036-4.506 10.55-6.824c3.512-2.316 7.02-4.674 10.524-7.076c3.506-2.4 7.008-4.844 10.504-7.328c3.498-2.484 6.99-5.01 10.476-7.576c3.488-2.566 6.97-5.172 10.446-7.818c3.478-2.646 6.95-5.332 10.414-8.056c3.466-2.726 6.926-5.492 10.38-8.294l-.576-.782l-.576-.782c-3.454 2.802-6.914 5.568-10.38 8.294c-3.464 2.724-6.936 5.41-10.414 8.056c-3.476 2.646-6.958 5.252-10.446 7.818c-3.486 2.566-6.978 5.092-10.476 7.576c-3.496 2.484-6.998 4.928-10.504 7.328c-3.504 2.402-7.012 4.76-10.524 7.076c-3.514 2.318-7.03 4.592-10.55 6.824c-3.518 2.232-7.038 4.422-10.562 6.566c-3.522 2.146-7.046 4.248-10.572 6.304c-3.526 2.058-7.052 4.07-10.58 6.04c-3.526 1.968-7.052 3.892-10.58 5.77c-3.526 1.878-7.052 3.71-10.58 5.496c-3.526 1.786-7.052 3.526-10.576 5.22c-3.526 1.692-7.048 3.34-10.568 4.94c-3.518 1.6-7.032 3.152-10.54 4.658a517.36 517.36 0 0 1-10.5 4.314c-3.494 1.38-6.98 2.712-10.46 4c-3.482 1.286-6.954 2.53-10.416 3.728c-3.464 1.198-6.916 2.352-10.358 3.46c-3.444 1.108-6.874 2.168-10.294 3.184c-3.422 1.016-6.832 1.984-10.23 2.906c-3.396.922-6.78 1.798-10.15 2.626c-3.37.83-6.724 1.612-10.062 2.35c-3.34.736-6.662 1.426-9.968 2.07c-3.304.642-6.592 1.238-9.862 1.786c-3.27.548-6.52 1.048-9.752 1.5c-3.232.45-6.444.852-9.636 1.206c-3.19.354-6.36.66-9.508.916c-3.148.254-6.274.462-9.376.62c-3.102.156-6.18.264-9.23.322c-3.052.056-6.08.056-9.086-.004c-3.004-.06-5.986-.178-8.944-.354c-2.958-.176-5.892-.408-8.802-.698c-2.908-.292-5.792-.64-8.648-1.046c-2.854-.404-5.682-.866-8.482-1.384c-2.8-.516-5.572-1.09-8.316-1.72c-2.744-.632-5.46-1.32-8.15-2.064c-2.69-.746-5.35-1.548-7.982-2.41c-2.63-.862-5.232-1.78-7.802-2.756c-2.568-.978-5.106-2.014-7.612-3.11c-2.508-1.096-4.982-2.25-7.422-3.464a194.992 194.992 0 0 1-7.252-3.78c-2.396-1.314-4.76-2.688-7.096-4.12a196.918 196.918 0 0 1-6.914-4.462Z"/></svg>